<svg xmlns="http://www.w3.org/2000/svg" width="300" height="200" viewBox="0 0 300 200" fill="none"><path d="M162 77.372C172.192 76.572 174.82 75.548 184.94 74.104C197.616 72.3 203.94 70.684 216.516 73.088C229.092 75.492 241.448 82.916 246.32 94.756C252.444 109.636 244.888 127.42 232.432 137.604C219.976 147.788 203.72 151.896 187.888 154.756C174.136 157.244 160.164 159.004 146.212 158.28C132.26 157.556 118.252 154.244 106.212 147.14C91.2279 138.292 80.0959 124.084 71.5319 108.94C65.3199 97.956 60.1879 85.984 59.6559 73.376C59.1239 60.768 63.8759 47.4 74.1639 40.096C87.1199 30.896 105.68 33.512 118.964 42.232C130.936 50.096 135.292 55.38 142.232 66.2C144.906 70.4351 148.791 73.7686 153.384 75.768C156.085 76.9888 159.041 77.5391 162 77.372Z" fill="#F0F0F0"></path><path d="M224.596 54.088H75.4359C72.2172 54.088 69.6079 56.6973 69.6079 59.916V154.604C69.6079 157.823 72.2172 160.432 75.4359 160.432H224.596C227.815 160.432 230.424 157.823 230.424 154.604V59.916C230.424 56.6973 227.815 54.088 224.596 54.088Z" fill="#263238"></path><path d="M62.8839 152.568H237.116V154.756C237.116 156.644 236.366 158.455 235.03 159.791C233.695 161.126 231.884 161.876 229.996 161.876H69.9999C68.1115 161.876 66.3005 161.126 64.9653 159.791C63.63 158.455 62.8799 156.644 62.8799 154.756V152.568H62.8839Z" fill="#263238"></path><path d="M225.66 58.316H73.9277V148.124H225.66V58.316Z" fill="#E0E0E0"></path><path d="M134.164 152.568L136.324 156.008H166.748L168.756 152.568H134.164Z" fill="#455A64"></path><path d="M221.536 61.356H78.3598C77.6374 61.356 77.0518 61.9416 77.0518 62.664V146.528C77.0518 147.25 77.6374 147.836 78.3598 147.836H221.536C222.258 147.836 222.844 147.25 222.844 146.528V62.664C222.844 61.9416 222.258 61.356 221.536 61.356Z" fill="#455A64"></path><path d="M222.844 67.692H77.0518V147.836H222.844V67.692Z" fill="#FAFAFA"></path><path d="M89.0077 64.696C89.0069 64.9261 88.9379 65.1507 88.8096 65.3416C88.6812 65.5325 88.4991 65.6811 88.2863 65.7686C88.0736 65.856 87.8397 65.8785 87.6141 65.8332C87.3886 65.7878 87.1816 65.6766 87.0192 65.5137C86.8568 65.3507 86.7464 65.1433 86.7018 64.9176C86.6572 64.6919 86.6805 64.4581 86.7687 64.2456C86.8569 64.0332 87.0061 63.8516 87.1974 63.7239C87.3887 63.5962 87.6136 63.528 87.8437 63.528C87.9969 63.528 88.1486 63.5583 88.29 63.617C88.4315 63.6757 88.56 63.7618 88.6682 63.8704C88.7763 63.9789 88.862 64.1077 88.9202 64.2493C88.9785 64.391 89.0082 64.5428 89.0077 64.696V64.696Z" fill="#7E57C2"></path><path d="M81.952 64.696C81.9512 64.9261 81.8823 65.1507 81.7539 65.3416C81.6255 65.5325 81.4435 65.6811 81.2307 65.7686C81.0179 65.856 80.784 65.8785 80.5585 65.8332C80.333 65.7878 80.1259 65.6766 79.9635 65.5137C79.8012 65.3507 79.6907 65.1433 79.6461 64.9176C79.6015 64.6919 79.6248 64.4581 79.713 64.2456C79.8012 64.0332 79.9504 63.8516 80.1418 63.7239C80.3331 63.5962 80.558 63.528 80.788 63.528C80.9412 63.528 81.0929 63.5583 81.2344 63.617C81.3759 63.6757 81.5044 63.7618 81.6125 63.8704C81.7207 63.9789 81.8063 64.1077 81.8646 64.2493C81.9228 64.391 81.9526 64.5428 81.952 64.696V64.696Z" fill="#7E57C2"></path><path d="M85.3397 64.696C85.3389 64.9261 85.27 65.1507 85.1416 65.3416C85.0132 65.5325 84.8312 65.6811 84.6184 65.7686C84.4056 65.856 84.1717 65.8785 83.9462 65.8332C83.7207 65.7878 83.5136 65.6766 83.3512 65.5137C83.1889 65.3507 83.0784 65.1433 83.0338 64.9176C82.9892 64.6919 83.0125 64.4581 83.1007 64.2456C83.1889 64.0332 83.3381 63.8516 83.5295 63.7239C83.7208 63.5962 83.9457 63.528 84.1757 63.528C84.3289 63.528 84.4806 63.5583 84.6221 63.617C84.7636 63.6757 84.8921 63.7618 85.0002 63.8704C85.1084 63.9789 85.194 64.1077 85.2523 64.2493C85.3105 64.391 85.3403 64.5428 85.3397 64.696V64.696Z" fill="#7E57C2"></path><path d="M186.1 101.072L186.552 101.036C186.7 101.036 186.884 100.988 187.104 100.952C187.353 100.893 187.597 100.819 187.836 100.728C188.507 100.47 189.114 100.067 189.612 99.548C189.927 99.2175 190.196 98.8462 190.412 98.444C190.652 97.982 190.818 97.4854 190.904 96.972C191.016 96.3118 190.991 95.6354 190.831 94.9853C190.67 94.3351 190.376 93.7252 189.969 93.1935C189.562 92.6619 189.049 92.22 188.463 91.8956C187.877 91.5712 187.231 91.3711 186.564 91.308C186.164 91.28 185.764 91.284 185.364 91.284H181.52H175.856L113.8 91.312C112.685 91.3175 111.606 91.7072 110.745 92.4154C109.883 93.1236 109.293 94.1071 109.072 95.2C108.932 95.9142 108.952 96.6507 109.132 97.356C109.407 98.3984 110.022 99.3189 110.88 99.9712C111.738 100.624 112.79 100.97 113.868 100.956H116.02H132.496L160.396 100.976L179.196 101.012H184.308H185.64H186.092C186.092 101.012 185.94 101.012 185.64 101.012H184.308L179.196 101.032L160.396 101.064L132.496 101.088H113.868C113.127 101.1 112.393 100.946 111.72 100.636C111.034 100.328 110.427 99.8691 109.942 99.2945C109.458 98.7199 109.108 98.0437 108.92 97.316C108.727 96.5788 108.705 95.807 108.857 95.0602C109.009 94.3134 109.33 93.6113 109.796 93.008C110.267 92.3947 110.873 91.8979 111.566 91.5559C112.26 91.214 113.023 91.0361 113.796 91.036L175.852 91.068H181.516H185.368C185.768 91.068 186.168 91.068 186.568 91.096C187.38 91.1782 188.159 91.4587 188.837 91.9128C189.515 92.3668 190.071 92.9806 190.457 93.7C190.842 94.4195 191.044 95.2225 191.046 96.0386C191.048 96.8547 190.85 97.6587 190.468 98.38C190.244 98.7856 189.968 99.1607 189.648 99.496C189.137 100.014 188.521 100.415 187.84 100.672C187.597 100.76 187.348 100.833 187.096 100.888C186.876 100.92 186.696 100.952 186.544 100.964C186.256 101.072 186.1 101.072 186.1 101.072Z" fill="#263238"></path><path d="M186.1 101.072H176.64V91.224H186.1C187.406 91.224 188.658 91.7428 189.581 92.6662C190.505 93.5896 191.024 94.8421 191.024 96.148V96.148C191.024 97.4539 190.505 98.7064 189.581 99.6298C188.658 100.553 187.406 101.072 186.1 101.072V101.072Z" fill="#7E57C2"></path><path d="M184.448 95.22C184.428 95.22 184.428 95.056 184.348 94.772C184.233 94.3783 183.991 94.0337 183.66 93.792C183.455 93.6388 183.22 93.5314 182.97 93.4771C182.72 93.4228 182.462 93.4229 182.212 93.4773C181.962 93.5317 181.727 93.6392 181.522 93.7925C181.317 93.9457 181.148 94.1412 181.025 94.3657C180.903 94.5902 180.83 94.8384 180.812 95.0935C180.794 95.3485 180.83 95.6046 180.92 95.8441C181.009 96.0837 181.149 96.3013 181.33 96.4821C181.511 96.6629 181.728 96.8027 181.968 96.892C182.249 96.9946 182.55 97.0264 182.846 96.9846C183.142 96.9427 183.423 96.8285 183.664 96.652C183.994 96.4078 184.234 96.0621 184.348 95.668C184.428 95.388 184.428 95.22 184.448 95.22C184.456 95.261 184.456 95.303 184.448 95.344C184.454 95.4597 184.444 95.5756 184.416 95.688C184.324 96.1159 184.085 96.4979 183.74 96.768C183.482 96.9702 183.177 97.1041 182.853 97.1572C182.529 97.2104 182.197 97.1811 181.888 97.072C181.506 96.936 181.176 96.6851 180.942 96.3539C180.709 96.0227 180.583 95.6273 180.583 95.222C180.583 94.8167 180.709 94.4214 180.942 94.0902C181.176 93.7589 181.506 93.5081 181.888 93.372C182.197 93.2613 182.529 93.2308 182.853 93.2833C183.177 93.3357 183.482 93.4695 183.74 93.672C184.084 93.9428 184.323 94.3246 184.416 94.752C184.444 94.8659 184.454 94.9831 184.448 95.1C184.456 95.1397 184.456 95.1804 184.448 95.22Z" fill="white"></path><path d="M186.964 98.352C186.426 98.1107 185.916 97.8102 185.444 97.456C184.937 97.1595 184.466 96.8051 184.04 96.4C185.091 96.9338 186.073 97.5933 186.964 98.364V98.352Z" fill="white"></path><path d="M114.988 98.916C114.884 97.9865 114.85 97.0506 114.884 96.116C114.849 95.1814 114.884 94.2455 114.988 93.316C115.092 94.2455 115.127 95.1814 115.092 96.116C115.126 97.0506 115.092 97.9865 114.988 98.916V98.916Z" fill="#455A64"></path><path d="M126.648 118.056H103.012V140.924H126.648V118.056Z" fill="#E0E0E0"></path><path d="M104.848 138.968L111.384 127.2L116.732 134.72L119.984 130.728L124.816 138.968H104.848Z" fill="#7E57C2"></path><path d="M119.012 124.912C119.013 125.249 118.913 125.579 118.726 125.86C118.54 126.141 118.273 126.36 117.962 126.49C117.65 126.619 117.307 126.653 116.977 126.587C116.646 126.522 116.342 126.359 116.103 126.121C115.865 125.882 115.702 125.578 115.637 125.247C115.571 124.917 115.605 124.574 115.734 124.262C115.864 123.951 116.083 123.684 116.364 123.498C116.645 123.311 116.975 123.211 117.312 123.212C117.763 123.212 118.195 123.391 118.514 123.71C118.833 124.029 119.012 124.461 119.012 124.912Z" fill="#7E57C2"></path><path d="M124.8 139.032C124.8 139.032 124.8 138.996 124.8 138.936C124.8 138.876 124.8 138.78 124.8 138.672C124.8 138.427 124.8 138.083 124.8 137.64C124.8 136.736 124.8 135.424 124.772 133.76C124.772 130.42 124.744 125.66 124.724 119.952L124.82 120.048H104.852C104.824 120.072 105.064 119.836 104.964 119.94V122.52C104.964 123.379 104.964 124.228 104.964 125.068V130C104.964 133.2 104.964 136.228 104.964 139.016L104.868 138.916L119.304 138.968L123.38 138.992H124.46H124.74H124.836H124.752H124.48H123.42L119.368 139.02L104.868 139.068H104.768V138.972C104.768 136.172 104.768 133.156 104.768 129.956V125.088C104.768 124.248 104.768 123.399 104.768 122.54V119.96C104.668 120.056 104.908 119.816 104.884 119.844H124.852H124.952V119.94C124.928 125.676 124.912 130.452 124.9 133.808C124.9 135.464 124.88 136.768 124.876 137.668C124.876 138.104 124.876 138.44 124.876 138.68C124.876 138.788 124.876 138.872 124.876 138.936C124.856 138.972 124.831 139.005 124.8 139.032V139.032Z" fill="#455A64"></path><path d="M164.272 118.056H140.636V140.924H164.272V118.056Z" fill="#7E57C2"></path><path d="M142.468 138.968L149.008 127.2L154.356 134.72L157.604 130.728L162.44 138.968H142.468Z" fill="#E0E0E0"></path><path d="M156.632 124.912C156.632 125.248 156.532 125.577 156.345 125.857C156.159 126.136 155.893 126.354 155.582 126.483C155.272 126.611 154.93 126.645 154.6 126.579C154.271 126.514 153.968 126.352 153.73 126.114C153.492 125.876 153.33 125.573 153.265 125.244C153.199 124.914 153.233 124.572 153.361 124.261C153.49 123.951 153.708 123.685 153.987 123.499C154.267 123.312 154.596 123.212 154.932 123.212C155.383 123.212 155.815 123.391 156.134 123.71C156.453 124.029 156.632 124.461 156.632 124.912V124.912Z" fill="#E0E0E0"></path><path d="M162.44 139.032C162.44 139.032 162.44 138.996 162.44 138.936C162.44 138.876 162.44 138.78 162.44 138.672C162.44 138.427 162.44 138.083 162.44 137.64C162.44 136.736 162.44 135.424 162.416 133.76C162.416 130.42 162.388 125.66 162.368 119.952L162.464 120.048H142.496L142.604 119.94V125.068C142.604 126.748 142.604 128.391 142.604 129.996C142.604 133.196 142.604 136.224 142.604 139.012L142.504 138.912L156.944 138.964L161.016 138.988H162.096H162.376H162.476H162.388H162.12H161.056L157.008 139.016L142.504 139.064H142.408V138.968C142.408 136.168 142.408 133.152 142.408 129.952C142.408 128.352 142.408 126.709 142.408 125.024V119.96C142.308 120.056 142.544 119.816 142.524 119.844H162.492H162.588V119.94C162.588 125.676 162.552 130.452 162.54 133.808C162.54 135.464 162.52 136.768 162.512 137.668C162.512 138.104 162.512 138.44 162.512 138.68C162.512 138.788 162.512 138.872 162.512 138.936C162.491 138.97 162.467 139.002 162.44 139.032V139.032Z" fill="#455A64"></path><path d="M201.896 118.056H178.26V140.924H201.896V118.056Z" fill="#E0E0E0"></path><path d="M180.092 138.968L186.628 127.2L191.976 134.72L195.228 130.728L200.06 138.968H180.092Z" fill="#7E57C2"></path><path d="M194.256 124.912C194.256 125.249 194.157 125.579 193.97 125.86C193.783 126.141 193.517 126.36 193.206 126.49C192.894 126.619 192.551 126.653 192.22 126.587C191.889 126.522 191.585 126.359 191.347 126.121C191.108 125.882 190.946 125.578 190.88 125.247C190.815 124.917 190.849 124.574 190.978 124.262C191.108 123.951 191.327 123.684 191.607 123.498C191.888 123.311 192.218 123.211 192.556 123.212C193.007 123.212 193.439 123.391 193.758 123.71C194.077 124.029 194.256 124.461 194.256 124.912Z" fill="#7E57C2"></path><path d="M200.064 139.032C200.061 139 200.061 138.968 200.064 138.936C200.064 138.868 200.064 138.78 200.064 138.672C200.064 138.427 200.064 138.083 200.064 137.64C200.064 136.736 200.064 135.424 200.04 133.76C200.04 130.42 200.008 125.66 199.988 119.952L200.088 120.048H180.116C180.092 120.072 180.328 119.836 180.228 119.94V125.068C180.228 126.748 180.228 128.391 180.228 129.996C180.228 133.196 180.228 136.224 180.228 139.012L180.132 138.912L194.572 138.964L198.644 138.988H199.724H200.004H200.104H200.016H199.744H198.684L194.632 139.016L180.132 139.064H180V138.968C180 136.168 180 133.152 180 129.952C180 128.352 180 126.709 180 125.024V119.96C179.9 120.056 180.136 119.816 180.112 119.844H200.084H200.18V119.94C200.18 125.676 200.14 130.452 200.128 133.808C200.128 135.464 200.128 136.768 200.104 137.668C200.104 138.104 200.104 138.44 200.104 138.68C200.104 138.788 200.104 138.872 200.104 138.936C200.104 139 200.064 139.032 200.064 139.032Z" fill="#455A64"></path><path d="M164.916 79.648H134.98V82.156H164.916V79.648Z" fill="#455A64"></path><path d="M229.044 152.568C229.044 152.628 193.348 152.672 149.328 152.672C105.308 152.672 69.6079 152.628 69.6079 152.568C69.6079 152.508 105.296 152.464 149.328 152.464C193.36 152.464 229.044 152.512 229.044 152.568Z" fill="#455A64"></path><path d="M266.248 161.872C266.248 161.932 215.64 161.976 153.224 161.976C90.808 161.976 40.188 161.932 40.188 161.872C40.188 161.812 90.788 161.768 153.224 161.768C215.66 161.768 266.248 161.816 266.248 161.872Z" fill="#263238"></path><path d="M200.54 112.088C200.54 112.088 200.896 108.292 201.256 108.324C201.616 108.356 201.676 109.028 201.632 109.356C201.588 109.684 201.632 110.956 201.632 110.956L200.54 112.088Z" fill="#FFBE9D"></path><path d="M233.112 108.98L231.292 121.78L239.692 158.476L216.492 160.332L226.492 101.236C226.492 101.236 233.092 100.488 233.112 108.98Z" fill="#263238"></path><path d="M204.588 173.576L203.248 188.72H208.972L211.496 173.576H204.588Z" fill="#FFBE9D"></path><path d="M203.248 188.72C203.248 188.72 199.384 189.22 198.696 189.716L208.82 189.596L208.972 188.72H203.248Z" fill="#FFBE9D"></path><path d="M198.696 189.72V190.124L209.12 190.012V189.576L198.696 189.72Z" fill="#7E57C2"></path><path d="M202.4 189.952C202.344 189.976 202.18 189.664 201.844 189.42C201.508 189.176 201.168 189.1 201.176 189.044C201.184 188.988 201.576 188.972 201.976 189.26C202.376 189.548 202.436 189.94 202.4 189.952Z" fill="#7E57C2"></path><path d="M209.104 188.42C209.104 188.476 208.408 188.616 207.616 188.992C206.824 189.368 206.264 189.792 206.224 189.764C206.574 189.341 207.023 189.013 207.532 188.808C208.014 188.546 208.556 188.412 209.104 188.42Z" fill="#7E57C2"></path><path d="M208.868 188.172C206.989 188.213 205.109 188.118 203.244 187.888C204.177 187.836 205.113 187.851 206.044 187.932C206.99 187.943 207.934 188.023 208.868 188.172V188.172Z" fill="#7E57C2"></path><path d="M209.54 186.18C208.523 186.47 207.487 186.694 206.44 186.848C205.406 187.07 204.358 187.228 203.304 187.32C204.323 187.033 205.358 186.81 206.404 186.652C207.439 186.43 208.486 186.272 209.54 186.18V186.18Z" fill="#7E57C2"></path><path d="M209.44 186.252C209.179 186.256 208.921 186.199 208.684 186.088C208.419 185.983 208.167 185.849 207.932 185.688C207.791 185.596 207.658 185.493 207.532 185.38C207.455 185.313 207.394 185.228 207.356 185.132C207.336 185.076 207.328 185.016 207.333 184.956C207.339 184.897 207.358 184.839 207.388 184.788C207.424 184.737 207.473 184.696 207.53 184.67C207.587 184.645 207.65 184.636 207.712 184.644C207.809 184.658 207.903 184.684 207.992 184.724C208.15 184.789 208.299 184.872 208.436 184.972C208.671 185.137 208.872 185.347 209.028 185.588C209.189 185.798 209.283 186.052 209.296 186.316C209.264 186.316 209.188 186.036 208.896 185.668C208.736 185.455 208.54 185.271 208.316 185.124C208.192 185.037 208.058 184.964 207.916 184.908C207.768 184.84 207.6 184.812 207.556 184.908C207.533 184.969 207.532 185.036 207.552 185.098C207.572 185.16 207.613 185.213 207.668 185.248C207.784 185.356 207.905 185.458 208.032 185.552C208.254 185.705 208.488 185.839 208.732 185.952C209.16 186.152 209.444 186.22 209.44 186.252Z" fill="#7E57C2"></path><path d="M209.388 186.4C209.264 186.172 209.213 185.91 209.244 185.652C209.257 185.377 209.316 185.107 209.42 184.852C209.483 184.698 209.564 184.551 209.66 184.416C209.712 184.342 209.768 184.271 209.828 184.204C209.865 184.159 209.91 184.123 209.962 184.097C210.014 184.072 210.071 184.058 210.128 184.056C210.19 184.06 210.249 184.08 210.299 184.114C210.35 184.149 210.39 184.196 210.416 184.252C210.46 184.344 210.48 184.446 210.472 184.548C210.465 184.716 210.438 184.882 210.392 185.044C210.31 185.316 210.174 185.569 209.992 185.788C209.846 186.003 209.636 186.167 209.392 186.256C209.392 186.228 209.62 186.072 209.876 185.704C210.024 185.489 210.133 185.249 210.196 184.996C210.236 184.849 210.258 184.697 210.26 184.544C210.26 184.392 210.2 184.256 210.108 184.256C210.016 184.256 209.896 184.408 209.804 184.528C209.714 184.653 209.636 184.787 209.572 184.928C209.465 185.168 209.397 185.423 209.368 185.684C209.34 186.1 209.42 186.4 209.388 186.4Z" fill="#7E57C2"></path><path d="M210.156 188.752C209.893 188.411 209.703 188.019 209.6 187.6C209.435 187.192 209.36 186.752 209.38 186.312C209.551 186.707 209.685 187.117 209.78 187.536C209.94 187.93 210.066 188.337 210.156 188.752V188.752Z" fill="#7E57C2"></path><path d="M210.84 188.216C210.056 187.744 209.473 186.999 209.204 186.124C209.26 186.096 209.536 186.624 210.004 187.196C210.472 187.768 210.876 188.168 210.84 188.216Z" fill="#7E57C2"></path><path d="M225.952 174.816L237.68 184.112L240.468 180.032L229.984 168.62L225.952 174.816Z" fill="#FFBE9D"></path><path d="M236.852 184.34C236.852 184.34 235.048 187.792 235.064 188.644L240.76 180.276L240.132 179.648L236.852 184.34Z" fill="#FFBE9D"></path><path d="M235.064 188.644L235.396 188.876L241.272 180.268L240.916 180.016L235.064 188.644Z" fill="#7E57C2"></path><path d="M237.364 185.756C237.364 185.812 237.004 185.756 236.612 185.908C236.22 186.06 235.964 186.276 235.92 186.24C235.876 186.204 236.096 185.868 236.548 185.716C237 185.564 237.388 185.708 237.364 185.756Z" fill="#7E57C2"></path><path d="M239.956 179.368C240.012 179.392 239.72 180.052 239.576 180.916C239.432 181.78 239.472 182.492 239.412 182.516C239.181 181.441 239.376 180.318 239.956 179.384V179.368Z" fill="#7E57C2"></path><path d="M239.636 179.148C239.197 179.878 238.701 180.572 238.152 181.224C237.654 181.918 237.103 182.573 236.504 183.184C236.945 182.452 237.442 181.757 237.992 181.104C238.487 180.409 239.037 179.755 239.636 179.148V179.148Z" fill="#7E57C2"></path><path d="M238.376 177.728C238.078 178.615 237.719 179.479 237.3 180.316C236.943 181.179 236.523 182.014 236.044 182.816C236.343 181.931 236.703 181.068 237.12 180.232C237.477 179.367 237.897 178.531 238.376 177.728V177.728Z" fill="#7E57C2"></path><path d="M238.372 177.852C238.392 177.852 238.204 178.104 237.804 178.38C237.572 178.542 237.321 178.677 237.056 178.78C236.901 178.843 236.74 178.894 236.576 178.932C236.476 178.954 236.373 178.954 236.272 178.932C236.214 178.917 236.161 178.889 236.115 178.85C236.069 178.811 236.033 178.763 236.008 178.708C235.987 178.649 235.982 178.586 235.994 178.525C236.006 178.463 236.035 178.406 236.076 178.36C236.142 178.288 236.217 178.226 236.3 178.176C236.69 177.929 237.144 177.805 237.604 177.82C237.869 177.807 238.13 177.877 238.352 178.02C238.352 178.052 238.064 177.948 237.604 177.964C237.177 177.975 236.762 178.105 236.404 178.34C236.264 178.424 236.144 178.548 236.188 178.632C236.225 178.686 236.279 178.726 236.342 178.745C236.405 178.764 236.472 178.761 236.532 178.736C236.687 178.702 236.839 178.66 236.988 178.608C237.244 178.517 237.492 178.405 237.728 178.272C238.132 178.024 238.352 177.828 238.372 177.852Z" fill="#7E57C2"></path><path d="M238.457 177.972C238.198 177.943 237.955 177.834 237.76 177.66C237.535 177.492 237.343 177.285 237.192 177.048C237.102 176.908 237.028 176.757 236.972 176.6C236.94 176.517 236.915 176.431 236.896 176.344C236.88 176.288 236.876 176.23 236.884 176.173C236.892 176.115 236.913 176.061 236.944 176.012C236.984 175.964 237.034 175.928 237.092 175.906C237.149 175.884 237.212 175.878 237.272 175.888C237.372 175.906 237.465 175.949 237.544 176.012C237.678 176.115 237.799 176.233 237.904 176.364C238.086 176.581 238.222 176.833 238.304 177.104C238.396 177.347 238.41 177.613 238.344 177.864C238.298 177.624 238.239 177.386 238.168 177.152C238.075 176.906 237.94 176.679 237.768 176.48C237.669 176.366 237.557 176.263 237.436 176.172C237.32 176.076 237.164 176.056 237.108 176.132C237.052 176.208 237.108 176.392 237.16 176.532C237.211 176.671 237.275 176.805 237.352 176.932C237.488 177.157 237.658 177.36 237.856 177.532C238.192 177.848 238.469 177.94 238.457 177.972Z" fill="#7E57C2"></path><path d="M240.836 178.696C240.396 178.723 239.956 178.655 239.544 178.496C239.109 178.399 238.7 178.209 238.344 177.94C239.175 178.173 240.001 178.425 240.82 178.696H240.836Z" fill="#7E57C2"></path><path d="M240.8 177.828C240.397 178.043 239.946 178.152 239.488 178.144C239.034 178.203 238.572 178.142 238.148 177.968C238.148 177.912 238.752 177.968 239.476 177.944C240.2 177.92 240.768 177.768 240.8 177.828Z" fill="#7E57C2"></path><path d="M214.648 129.128C214.648 129.128 210.168 158.884 210.82 160.328C211.472 161.772 225.976 176.62 225.976 176.62L231.42 167.296C231.42 167.296 221.82 156.66 221.96 156.096C222.1 155.532 228.88 126.732 228.88 126.732L214.648 129.128Z" fill="#7E57C2"></path><path d="M215.68 165.952L219.504 157.552L223.904 148.12C221.227 151.991 218.949 156.123 217.104 160.452C216.387 162.214 215.909 164.064 215.68 165.952V165.952Z" fill="#7E57C2"></path><path opacity="0.4" d="M215.68 165.952L219.504 157.552L223.904 148.12C221.227 151.991 218.949 156.123 217.104 160.452C216.387 162.214 215.909 164.064 215.68 165.952V165.952Z" fill="black"></path><path d="M213.056 140.112C213.1 139.796 216.712 131.672 216.712 131.672L214.956 129.2L214.648 129.132L213.056 140.112Z" fill="#7E57C2"></path><path opacity="0.4" d="M213.056 140.112C213.1 139.796 216.712 131.672 216.712 131.672L214.956 129.2L214.648 129.132L213.056 140.112Z" fill="black"></path><path d="M231.424 126.328L231.692 127.432C232.494 130.688 232.005 134.128 230.328 137.032L218.184 158.084C217.322 159.579 216.695 161.198 216.324 162.884L213.3 176.484C213.3 176.484 203.752 176.808 203.34 176.484C202.928 176.16 204.572 167.156 205.668 160.336C206.496 155.192 213.376 139.228 216.712 131.688L214.648 129.144L218.248 128.548L231.424 126.328Z" fill="#7E57C2"></path><path d="M213.3 176.468C213.17 176.506 213.036 176.527 212.9 176.532C212.644 176.56 212.28 176.592 211.824 176.62C210.916 176.68 209.656 176.724 208.268 176.72C206.88 176.716 205.62 176.676 204.712 176.628C204.256 176.608 203.888 176.584 203.636 176.564C203.501 176.567 203.366 176.55 203.236 176.512C203.368 176.488 203.503 176.48 203.636 176.488H204.712L208.264 176.52C209.652 176.52 210.904 176.5 211.812 176.48L212.892 176.452C213.028 176.437 213.166 176.442 213.3 176.468V176.468Z" fill="#263238"></path><path d="M213.824 173.912C213.824 173.968 211.528 174.004 208.7 173.992C205.872 173.98 203.572 173.928 203.572 173.876C203.572 173.824 205.868 173.784 208.7 173.792C211.532 173.8 213.824 173.856 213.824 173.912Z" fill="#263238"></path><path d="M229.752 165.368C229.701 165.502 229.632 165.628 229.548 165.744L228.928 166.728L226.872 169.964L224.824 173.204L224.196 174.184C224.126 174.309 224.04 174.425 223.94 174.528C223.987 174.388 224.05 174.253 224.128 174.128C224.26 173.888 224.456 173.54 224.7 173.116C225.196 172.268 225.9 171.116 226.7 169.84C227.5 168.564 228.256 167.44 228.812 166.64C229.092 166.24 229.32 165.912 229.484 165.688C229.56 165.571 229.65 165.463 229.752 165.368V165.368Z" fill="#263238"></path><path d="M225.404 175.816C225.189 175.424 225.033 175.002 224.94 174.564C224.784 174.146 224.692 173.706 224.668 173.26C224.883 173.651 225.04 174.071 225.132 174.508C225.288 174.928 225.38 175.369 225.404 175.816V175.816Z" fill="#263238"></path><path d="M226.252 175.788C226.037 175.105 225.885 174.403 225.8 173.692C225.65 172.992 225.567 172.28 225.552 171.564C225.916 172.947 226.15 174.361 226.252 175.788V175.788Z" fill="#263238"></path><path d="M227.36 174.208C227.148 173.612 226.98 173.001 226.86 172.38C226.675 171.775 226.541 171.156 226.46 170.528C226.732 171.102 226.931 171.708 227.052 172.332C227.237 172.941 227.341 173.572 227.36 174.208V174.208Z" fill="#263238"></path><path d="M228.304 172.02C228.088 171.451 227.936 170.859 227.852 170.256C227.7 169.665 227.614 169.058 227.596 168.448C227.808 169.02 227.96 169.612 228.048 170.216C228.198 170.806 228.284 171.411 228.304 172.02V172.02Z" fill="#263238"></path><path d="M229.524 170.208C229.344 169.637 229.201 169.054 229.096 168.464C228.923 167.888 228.789 167.302 228.696 166.708C228.975 167.246 229.171 167.823 229.276 168.42C229.45 169 229.534 169.603 229.524 170.208V170.208Z" fill="#263238"></path><path d="M230.612 168.672C230.395 168.222 230.242 167.744 230.156 167.252C230.004 166.775 229.915 166.28 229.892 165.78C230.258 166.708 230.501 167.68 230.612 168.672V168.672Z" fill="#263238"></path><path d="M208.328 173.812C207.561 174.287 206.769 174.721 205.956 175.112C205.178 175.565 204.377 175.977 203.556 176.348C203.753 176.167 203.972 176.013 204.208 175.888C204.608 175.628 205.212 175.288 205.876 174.936C206.54 174.584 207.152 174.292 207.6 174.092C207.83 173.968 208.074 173.874 208.328 173.812V173.812Z" fill="#263238"></path><path d="M211.272 173.856C211.041 174.047 210.788 174.212 210.52 174.348C210.04 174.624 209.372 174.988 208.616 175.364C207.86 175.74 207.16 176.048 206.648 176.26C206.38 176.393 206.096 176.494 205.804 176.56C206.054 176.388 206.322 176.244 206.604 176.132L208.536 175.184L210.464 174.224C210.72 174.073 210.99 173.949 211.272 173.856V173.856Z" fill="#263238"></path><path d="M213.512 173.856C212.942 174.432 212.315 174.95 211.64 175.4C211.003 175.902 210.319 176.34 209.596 176.708C210.205 176.176 210.847 175.684 211.52 175.236C212.156 174.736 212.821 174.275 213.512 173.856Z" fill="#263238"></path><path d="M213.756 175.264C213.792 175.308 213.42 175.664 212.924 176.032C212.644 176.29 212.321 176.496 211.968 176.64C212.2 176.337 212.483 176.078 212.804 175.872C213.084 175.615 213.406 175.41 213.756 175.264V175.264Z" fill="#263238"></path><path d="M205.716 173.764C205.345 174.101 204.93 174.387 204.484 174.616C204.07 174.901 203.619 175.13 203.144 175.296C203.93 174.674 204.795 174.158 205.716 173.764V173.764Z" fill="#263238"></path><path d="M216.448 131.6C216.31 132.055 216.14 132.5 215.94 132.932C215.612 133.732 215.14 134.872 214.668 136.132C214.196 137.392 213.76 138.532 213.468 139.332C213.322 139.783 213.145 140.224 212.94 140.652C212.954 140.525 212.982 140.4 213.024 140.28C213.092 140.044 213.196 139.704 213.332 139.284C213.604 138.448 214.008 137.284 214.492 136.048C214.976 134.812 215.46 133.676 215.824 132.876C216.008 132.476 216.16 132.156 216.272 131.936C216.317 131.817 216.376 131.704 216.448 131.6V131.6Z" fill="#263238"></path><path d="M215.452 166.904C215.444 166.826 215.444 166.746 215.452 166.668C215.472 166.492 215.504 166.268 215.536 165.996C215.568 165.724 215.624 165.348 215.716 164.936C215.808 164.524 215.88 164.056 216.024 163.548C216.092 163.296 216.164 163.028 216.236 162.748C216.308 162.468 216.412 162.188 216.504 161.892C216.68 161.3 216.924 160.692 217.164 160.028C217.727 158.625 218.365 157.254 219.076 155.92C220.392 153.514 221.844 151.185 223.424 148.944C224.02 148.08 224.516 147.388 224.864 146.912L225.264 146.368C225.31 146.302 225.36 146.241 225.416 146.184C225.386 146.258 225.347 146.328 225.3 146.392C225.2 146.536 225.08 146.724 224.928 146.956L223.54 149.024C222.4 150.772 220.8 153.2 219.268 156C218.561 157.327 217.922 158.689 217.352 160.08C217.108 160.728 216.856 161.34 216.676 161.928C216.58 162.224 216.48 162.504 216.4 162.776C216.32 163.048 216.248 163.316 216.18 163.576C216.028 164.08 215.936 164.548 215.84 164.952C215.744 165.356 215.676 165.712 215.628 166C215.58 166.288 215.54 166.492 215.508 166.664C215.498 166.746 215.479 166.826 215.452 166.904Z" fill="#263238"></path><path d="M227.36 101.268L217.964 102.068C217.964 102.068 215.164 102.132 212.092 109.268L209.884 116.348L213.856 117.196V117.596L214.656 129.128L231.6 126.4C231.636 124.936 230.8 122.8 230.188 120.8C230.824 119.22 233.5 112.324 233.496 109.004C233.496 101.904 227.356 101.292 227.356 101.292" fill="white"></path><path d="M231.42 167.288C231.38 167.428 231.323 167.563 231.248 167.688C231.124 167.932 230.94 168.28 230.704 168.708C230.232 169.564 229.552 170.732 228.784 172.008L226.8 175.26L226.2 176.252C226.136 176.378 226.055 176.495 225.96 176.6C226 176.46 226.058 176.325 226.132 176.2C226.256 175.956 226.44 175.608 226.676 175.18C227.148 174.324 227.828 173.156 228.596 171.88L230.564 168.616L231.164 167.628C231.236 167.505 231.322 167.391 231.42 167.288V167.288Z" fill="#263238"></path><path d="M229.2 118.224C228.786 118.425 228.336 118.543 227.876 118.572C227.426 118.662 226.962 118.662 226.512 118.572C226.951 118.458 227.4 118.387 227.852 118.36C228.296 118.272 228.748 118.226 229.2 118.224Z" fill="white"></path><path d="M214.688 117.66L214.496 130.176L219.576 101.672C217.888 101.372 214.74 102.7 213.556 104.384C212.708 105.392 212.244 107.712 209.884 114.696L208.436 119.436L202.564 113.008L198.608 116.584C198.608 116.584 205.432 127.732 208.284 128.348C212.164 129.188 214.684 117.66 214.684 117.66" fill="#455A64"></path><path d="M215.5 106.08C215.503 106.244 215.485 106.408 215.448 106.568C215.396 106.92 215.328 107.368 215.244 107.884C215.072 108.996 214.844 110.532 214.632 112.236C214.42 113.94 214.272 115.488 214.168 116.608C214.12 117.136 214.08 117.58 214.044 117.932C214.042 118.097 214.019 118.261 213.976 118.42C213.96 118.256 213.96 118.092 213.976 117.928C213.976 117.612 214.004 117.16 214.036 116.596C214.1 115.472 214.232 113.92 214.436 112.196C214.64 110.472 214.9 108.952 215.108 107.844C215.216 107.292 215.308 106.844 215.376 106.536C215.403 106.38 215.445 106.228 215.5 106.08V106.08Z" fill="#263238"></path><path d="M214.184 105.532C214.164 105.476 214.952 105.132 215.848 104.588C216.744 104.044 217.396 103.484 217.448 103.528C216.575 104.488 215.447 105.181 214.196 105.528L214.184 105.532Z" fill="white"></path><path d="M212.56 113.784C212.358 113.321 212.193 112.842 212.068 112.352C211.88 111.883 211.73 111.401 211.62 110.908C212.155 111.779 212.477 112.765 212.56 113.784V113.784Z" fill="white"></path><path d="M216.68 109.28C216.736 109.837 216.695 110.4 216.56 110.944C216.491 111.502 216.325 112.044 216.068 112.544C216.134 111.996 216.233 111.452 216.364 110.916C216.435 110.365 216.541 109.818 216.68 109.28V109.28Z" fill="white"></path><path d="M210.964 120.192C210.967 120.684 210.927 121.175 210.844 121.66C210.824 122.154 210.762 122.645 210.66 123.128C210.536 122.139 210.64 121.135 210.964 120.192Z" fill="white"></path><path d="M203.456 120.092C203.02 119.618 202.661 119.078 202.392 118.492C202.065 117.936 201.825 117.333 201.68 116.704C202.007 117.252 202.304 117.819 202.568 118.4C202.894 118.948 203.19 119.513 203.456 120.092Z" fill="white"></path><path d="M207.752 120.4C207.437 120.7 207.064 120.933 206.656 121.084C206.274 121.296 205.851 121.425 205.416 121.464C205.781 121.238 206.169 121.051 206.572 120.904C206.947 120.697 207.343 120.528 207.752 120.4V120.4Z" fill="white"></path><path d="M228.096 124.352L231.036 159.3L239.892 158.464L231.484 121.768L232.512 111.916L228.096 124.352Z" fill="#455A64"></path><path d="M231.036 159.3C230.984 159.3 230.332 151.552 229.584 141.984C228.836 132.416 228.28 124.66 228.332 124.656C228.384 124.652 229.04 132.4 229.784 141.968C230.528 151.536 231.092 159.296 231.036 159.3Z" fill="#263238"></path><path d="M230.184 125.16C230.244 124.758 230.37 124.369 230.556 124.008C230.685 123.623 230.874 123.261 231.116 122.936C230.933 123.725 230.618 124.477 230.184 125.16V125.16Z" fill="white"></path><path d="M232.628 130.36C232.58 130.396 232.14 129.884 231.52 129.336C231.124 129.027 230.744 128.699 230.38 128.352C230.861 128.536 231.296 128.821 231.656 129.188C232.059 129.506 232.39 129.905 232.628 130.36V130.36Z" fill="white"></path><path d="M232.088 137.372C232.249 136.961 232.434 136.56 232.644 136.172C232.794 135.752 232.969 135.342 233.168 134.944C233.158 135.401 233.04 135.849 232.824 136.252C232.671 136.678 232.418 137.062 232.088 137.372V137.372Z" fill="white"></path><path d="M234 143C233.144 142.439 232.367 141.767 231.688 141C232.127 141.255 232.53 141.566 232.888 141.924C233.304 142.233 233.678 142.595 234 143V143Z" fill="white"></path><path d="M235.6 146.864C235.475 145.742 235.483 144.608 235.624 143.488C235.716 144.046 235.746 144.612 235.712 145.176C235.741 145.741 235.703 146.308 235.6 146.864V146.864Z" fill="white"></path><path d="M232.76 149.488C232.647 149.049 232.576 148.6 232.548 148.148C232.458 147.704 232.408 147.253 232.4 146.8C232.607 147.212 232.731 147.66 232.764 148.12C232.854 148.572 232.853 149.037 232.76 149.488V149.488Z" fill="white"></path><path d="M235.692 152.832C234.843 152.84 233.998 152.714 233.188 152.46C233.613 152.422 234.041 152.452 234.456 152.548C234.88 152.578 235.297 152.674 235.692 152.832Z" fill="white"></path><path d="M235.2 157.28C235.622 156.411 236.16 155.603 236.8 154.88C236.623 155.331 236.383 155.755 236.088 156.14C235.844 156.558 235.545 156.941 235.2 157.28Z" fill="white"></path><path d="M215.048 128.592L200.172 108.328C201.054 107.649 201.879 106.9 202.64 106.088C205.812 102.693 207.736 98.3199 208.096 93.6873C208.456 89.0547 207.231 84.4372 204.622 80.5924C202.013 76.7475 198.175 73.9035 193.737 72.527C189.299 71.1504 184.525 71.323 180.198 73.0164C175.871 74.7098 172.248 77.8235 169.923 81.8467C167.598 85.8699 166.71 90.5637 167.403 95.1582C168.097 99.7527 170.332 103.975 173.741 107.133C177.149 110.29 181.53 112.195 186.164 112.536C186.895 112.589 187.628 112.603 188.36 112.576C191.338 112.484 194.26 111.742 196.92 110.4L211.948 130.872C212.252 131.281 212.706 131.553 213.21 131.628C213.713 131.703 214.227 131.575 214.636 131.272V131.272C215.045 130.97 215.317 130.519 215.395 130.017C215.472 129.515 215.347 129.003 215.048 128.592V128.592ZM188.248 108.736C187.653 108.755 187.058 108.745 186.464 108.704C182.211 108.397 178.237 106.47 175.363 103.32C172.488 100.17 170.933 96.0363 171.016 91.7726C171.1 87.5089 172.817 83.4399 175.812 80.4046C178.808 77.3694 182.854 75.5995 187.116 75.46C187.718 75.4398 188.32 75.4519 188.92 75.496C193.167 75.8133 197.131 77.7461 199.996 80.8968C202.861 84.0474 204.41 88.1764 204.324 92.4342C204.238 96.692 202.524 100.755 199.533 103.787C196.543 106.819 192.504 108.591 188.248 108.736Z" fill="#263238"></path><path d="M209.14 117.572L207.376 123.6C207.376 123.6 216.608 126.956 221.608 126.892C226.292 126.836 227.632 126.304 229.28 122.524C230.928 118.744 232.8 114.4 233.2 111.884C233.2 111.884 235.844 100.368 225.756 101.396L225.476 110.4C225.476 110.4 224.36 114.092 224.276 114.308C223.524 116.308 222.548 119.216 221.604 119.568C220.66 119.92 209.14 117.572 209.14 117.572Z" fill="#455A64"></path><path d="M223.628 122.4C222.885 121.527 222.303 120.529 221.908 119.452C222.25 119.908 222.551 120.392 222.808 120.9C223.122 121.376 223.397 121.878 223.628 122.4V122.4Z" fill="#263238"></path><path d="M224.572 121.452C224.09 121.203 223.64 120.897 223.232 120.54C222.789 120.235 222.386 119.874 222.032 119.468C222.513 119.718 222.963 120.024 223.372 120.38C223.816 120.685 224.219 121.046 224.572 121.452Z" fill="#263238"></path><path d="M227.708 105.028C227.415 105.99 227.06 106.932 226.644 107.848C226.291 108.789 225.875 109.706 225.4 110.592C225.69 109.629 226.044 108.687 226.46 107.772C226.814 106.83 227.231 105.914 227.708 105.028Z" fill="#263238"></path><path d="M232.8 113.6C232.774 113.758 232.73 113.912 232.668 114.06C232.556 114.388 232.416 114.8 232.268 115.284C231.9 116.316 231.384 117.74 230.776 119.284C230.168 120.828 229.576 122.232 229.088 123.22C228.852 123.716 228.652 124.112 228.504 124.38C228.439 124.522 228.357 124.657 228.26 124.78C228.303 124.626 228.362 124.477 228.436 124.336C228.576 124.02 228.748 123.62 228.956 123.136C229.396 122.132 229.976 120.736 230.588 119.184C231.2 117.632 231.724 116.256 232.132 115.184C232.332 114.676 232.5 114.264 232.616 113.984C232.666 113.851 232.727 113.722 232.8 113.6V113.6Z" fill="#263238"></path><path d="M217.964 119.304C217.964 119.36 215.964 119.04 213.476 118.592C210.988 118.144 209.012 117.736 209.024 117.684C209.036 117.632 211.024 117.948 213.512 118.396C216.001 118.844 217.976 119.252 217.964 119.304Z" fill="#263238"></path><path d="M228.432 113.808C228.311 112.726 228.326 111.634 228.476 110.556C228.567 111.094 228.593 111.64 228.552 112.184C228.579 112.728 228.538 113.274 228.432 113.808V113.808Z" fill="white"></path><path d="M224.836 124.88C224.984 124.461 225.162 124.053 225.368 123.66C225.515 123.24 225.692 122.831 225.896 122.436C225.881 122.891 225.763 123.337 225.552 123.74C225.401 124.168 225.156 124.557 224.836 124.88V124.88Z" fill="white"></path><path d="M219.952 124.568C219.404 123.645 218.885 122.705 218.396 121.748C218.779 122.135 219.094 122.584 219.328 123.076C219.619 123.534 219.83 124.039 219.952 124.568V124.568Z" fill="white"></path><path d="M213.2 121.452C212.795 121.72 212.355 121.932 211.892 122.08C211.454 122.288 210.99 122.436 210.512 122.52C210.917 122.252 211.357 122.04 211.82 121.892C212.258 121.684 212.722 121.536 213.2 121.452V121.452Z" fill="white"></path><path d="M232.14 107.32C232.096 107.356 231.652 106.92 231.012 106.464C230.372 106.008 229.788 105.772 229.812 105.716C230.291 105.8 230.742 106 231.124 106.3C231.543 106.55 231.892 106.9 232.14 107.32Z" fill="white"></path><path d="M229.26 117.264C228.236 117.632 227.143 117.769 226.06 117.664C226.587 117.55 227.122 117.476 227.66 117.444C228.188 117.345 228.723 117.285 229.26 117.264Z" fill="white"></path><path d="M228.312 86.428C228.582 85.9369 229.011 85.5527 229.529 85.3389C230.047 85.125 230.622 85.0944 231.16 85.252C231.692 85.4269 232.175 85.7271 232.567 86.1274C232.958 86.5277 233.248 87.0162 233.412 87.552C233.728 88.6308 233.749 89.7745 233.472 90.864C233.296 91.664 233.072 92.588 233.592 93.204C234.112 93.82 235 93.764 235.572 94.26C235.713 94.384 235.827 94.5356 235.907 94.7056C235.988 94.8755 236.032 95.0601 236.038 95.2478C236.044 95.4356 236.011 95.6226 235.942 95.7972C235.872 95.9717 235.768 96.1302 235.635 96.2628C235.502 96.3954 235.343 96.4992 235.168 96.5678C234.993 96.6364 234.806 96.6684 234.618 96.6618C234.43 96.6551 234.246 96.61 234.076 96.5292C233.907 96.4484 233.756 96.3336 233.632 96.192C233.632 96.748 233.936 97.256 234.108 97.792C234.28 98.328 234.304 98.992 233.88 99.348C233.712 99.4695 233.514 99.5439 233.307 99.5636C233.101 99.5833 232.892 99.5475 232.704 99.46C232.328 99.2817 231.988 99.0364 231.7 98.736C231.896 99.3104 231.896 99.9336 231.7 100.508C231.594 100.791 231.417 101.043 231.186 101.237C230.955 101.432 230.677 101.564 230.38 101.62C230.004 101.648 229.627 101.563 229.299 101.375C228.972 101.188 228.707 100.907 228.54 100.568C228.219 99.8836 228.098 99.1222 228.192 98.372C228.276 97.204 228.592 96.06 228.72 94.9C228.926 93.7373 228.775 92.5396 228.288 91.464" fill="#7E57C2"></path><path d="M235.092 93.2479C235.092 93.2479 235.044 93.2759 234.94 93.2479C234.866 93.2357 234.795 93.2062 234.734 93.1617C234.673 93.1173 234.623 93.0591 234.588 92.9919C234.532 92.8806 234.517 92.7526 234.547 92.6314C234.577 92.5102 234.65 92.4039 234.752 92.332C234.884 92.2316 235.047 92.1818 235.212 92.1913C235.377 92.2008 235.533 92.2692 235.652 92.384C235.792 92.5199 235.892 92.6924 235.939 92.8818C235.986 93.0712 235.98 93.27 235.92 93.4559C235.868 93.6675 235.756 93.8594 235.596 94.008C235.421 94.1656 235.196 94.2574 234.96 94.2679C234.719 94.2833 234.477 94.2306 234.264 94.1159C234.044 93.9922 233.861 93.8129 233.732 93.596C233.479 93.1437 233.389 92.6186 233.476 92.108C233.624 91.08 234.12 90.22 234.108 89.356C234.12 88.5933 233.911 87.8435 233.508 87.196C233.237 86.757 232.884 86.3741 232.468 86.068C232.172 85.852 231.984 85.772 231.996 85.752C232.008 85.732 232.044 85.752 232.136 85.804C232.267 85.8602 232.393 85.9271 232.512 86.004C232.958 86.2944 233.338 86.6745 233.628 87.12C234.065 87.7851 234.296 88.5642 234.292 89.3599C234.292 90.2759 233.808 91.1639 233.672 92.1359C233.592 92.6007 233.673 93.0789 233.9 93.4919C234.003 93.678 234.155 93.8318 234.34 93.9363C234.525 94.0408 234.736 94.0919 234.948 94.084C235.136 94.0727 235.315 94.0013 235.459 93.8803C235.603 93.7592 235.705 93.595 235.748 93.4119C235.803 93.2541 235.813 93.0842 235.777 92.9211C235.741 92.758 235.66 92.6081 235.544 92.488C235.449 92.3914 235.323 92.3316 235.189 92.3191C235.054 92.3067 234.919 92.3424 234.808 92.42C234.723 92.4763 234.66 92.5606 234.63 92.6585C234.6 92.7563 234.605 92.8615 234.644 92.9559C234.672 93.0161 234.713 93.0697 234.763 93.1131C234.814 93.1566 234.873 93.1889 234.936 93.208C235.036 93.248 235.088 93.2359 235.092 93.2479Z" fill="#7E57C2"></path><path d="M225.836 101.62L226.372 89.412L221.524 85.74L217.124 87.896C217.124 87.896 216.976 93.428 217.124 95.828C217.272 98.228 219.692 98.484 219.692 98.484C219.692 98.484 219.636 99.888 219.58 101.368C219.565 101.792 219.635 102.214 219.787 102.61C219.94 103.006 220.171 103.367 220.467 103.671C220.762 103.975 221.117 104.216 221.508 104.379C221.9 104.542 222.32 104.624 222.744 104.62V104.62C223.545 104.61 224.312 104.293 224.887 103.735C225.462 103.177 225.802 102.42 225.836 101.62V101.62Z" fill="#FFBE9D"></path><path d="M217.6 91.928C217.6 91.9889 217.618 92.0485 217.652 92.0991C217.686 92.1498 217.734 92.1892 217.79 92.2126C217.847 92.2359 217.908 92.242 217.968 92.2301C218.028 92.2182 218.083 92.1889 218.126 92.1458C218.169 92.1027 218.198 92.0478 218.21 91.9881C218.222 91.9283 218.216 91.8664 218.193 91.8101C218.169 91.7538 218.13 91.7057 218.079 91.6719C218.029 91.6381 217.969 91.62 217.908 91.62C217.827 91.621 217.749 91.6538 217.691 91.7114C217.634 91.7689 217.601 91.8466 217.6 91.928Z" fill="#263238"></path><path d="M217.3 91.5999C217.34 91.6399 217.564 91.4479 217.896 91.4319C218.228 91.4159 218.476 91.5719 218.508 91.5279C218.54 91.4839 218.484 91.4359 218.376 91.3599C218.231 91.2635 218.058 91.2172 217.884 91.228C217.71 91.2389 217.544 91.3063 217.412 91.4199C217.312 91.4959 217.28 91.5759 217.3 91.5999Z" fill="#263238"></path><path d="M221.156 91.928C221.156 91.9889 221.174 92.0485 221.208 92.0991C221.242 92.1498 221.29 92.1892 221.346 92.2126C221.403 92.2359 221.465 92.242 221.524 92.2301C221.584 92.2182 221.639 92.1889 221.682 92.1458C221.725 92.1027 221.754 92.0478 221.766 91.9881C221.778 91.9283 221.772 91.8664 221.749 91.8101C221.725 91.7538 221.686 91.7057 221.635 91.6719C221.585 91.6381 221.525 91.62 221.464 91.62C221.383 91.62 221.304 91.6524 221.246 91.7102C221.189 91.768 221.156 91.8463 221.156 91.928Z" fill="#263238"></path><path d="M220.964 91.5999C221.004 91.6399 221.232 91.4479 221.56 91.4319C221.888 91.4159 222.14 91.5719 222.176 91.5279C222.212 91.4839 222.152 91.4359 222.04 91.3599C221.895 91.2635 221.722 91.2172 221.548 91.228C221.374 91.2389 221.208 91.3063 221.076 91.4199C220.976 91.4959 220.944 91.5759 220.964 91.5999Z" fill="#263238"></path><path d="M220.864 94.7C220.359 94.9572 219.821 95.1417 219.264 95.248C219.386 95.4144 219.56 95.5355 219.759 95.592C219.957 95.6485 220.169 95.6372 220.36 95.56C220.452 95.5397 220.538 95.5008 220.613 95.4458C220.689 95.3907 220.752 95.3206 220.8 95.2399C220.847 95.1592 220.877 95.0695 220.888 94.9766C220.899 94.8837 220.891 94.7895 220.864 94.7V94.7Z" fill="white"></path><path d="M219.68 98.484C220.821 98.4352 221.924 98.0619 222.86 97.408C222.86 97.408 222.14 99.172 219.732 99.072L219.68 98.484Z" fill="#EB996E"></path><path d="M233.352 96.312C233.049 96.3234 232.748 96.2544 232.48 96.112C232.085 95.9011 231.757 95.5838 231.532 95.196C231.256 94.7089 231.02 94.2006 230.824 93.676C230.376 92.56 230.024 91.524 229.808 90.768L229.708 90.436C229.708 90.308 229.668 90.192 229.648 90.108C228.336 85.104 223.94 84.172 223.068 84.172C222.196 84.172 220.504 83.66 218.124 86.132C217.767 86.5038 217.464 86.9239 217.224 87.38C216.696 88.0365 216.332 88.8101 216.164 89.636C216.055 90.0265 216.035 90.4369 216.108 90.836C216.152 90.836 216.16 90.384 216.344 89.688C216.456 89.279 216.611 88.8834 216.808 88.508C216.6 89.4323 216.686 90.3984 217.052 91.272L217.904 91.036L220.96 89.996C220.68 89.052 221.092 87.876 221.32 87.328L221.344 87.308C221.515 88.3053 221.999 89.2225 222.725 89.9271C223.451 90.6317 224.382 91.0873 225.384 91.228L225.948 99.088C230.012 98.22 229.916 92.784 229.892 91.68C230.076 92.3 230.316 93.016 230.616 93.764C230.814 94.3026 231.063 94.821 231.36 95.312C231.611 95.7251 231.976 96.0561 232.412 96.264C232.708 96.4019 233.037 96.4506 233.36 96.404C233.479 96.3932 233.592 96.3503 233.688 96.28C233.576 96.2836 233.463 96.2943 233.352 96.312V96.312Z" fill="#7E57C2"></path><path d="M219.772 94.4C219.595 94.3589 219.414 94.3361 219.232 94.332C219.148 94.332 219.064 94.332 219.048 94.256C219.036 94.1643 219.052 94.071 219.092 93.988L219.32 93.304C219.476 92.816 219.612 92.372 219.72 92.048C219.785 91.877 219.825 91.698 219.84 91.516C219.743 91.6681 219.663 91.8304 219.6 92C219.488 92.316 219.34 92.756 219.2 93.244L218.984 93.932C218.935 94.0397 218.924 94.161 218.952 94.276C218.965 94.3054 218.984 94.3315 219.008 94.3524C219.033 94.3732 219.061 94.3881 219.092 94.396C219.14 94.4016 219.189 94.4016 219.236 94.396C219.414 94.4202 219.594 94.4215 219.772 94.4V94.4Z" fill="#263238"></path><path d="M226.628 94.284C226.588 93.8794 226.632 93.4709 226.756 93.084C226.819 92.894 226.933 92.7247 227.084 92.5937C227.235 92.4628 227.419 92.3751 227.616 92.34C227.849 92.3294 228.077 92.4052 228.258 92.5529C228.438 92.7006 228.557 92.9097 228.592 93.14C228.619 93.369 228.577 93.6008 228.471 93.8059C228.366 94.011 228.202 94.1802 228 94.292C227.795 94.3988 227.568 94.458 227.337 94.4649C227.106 94.4718 226.876 94.4264 226.664 94.332" fill="#FFBE9D"></path><path d="M227.324 93.936C227.324 93.908 227.456 93.968 227.624 93.916C227.73 93.8799 227.822 93.8113 227.886 93.7202C227.951 93.629 227.985 93.5197 227.984 93.408C227.994 93.3517 227.992 93.2941 227.977 93.2389C227.963 93.1837 227.936 93.1323 227.9 93.088C227.826 93.0285 227.731 92.9998 227.636 93.008C227.456 93.008 227.332 93.072 227.32 93.044C227.308 93.016 227.4 92.932 227.616 92.868C227.685 92.8511 227.756 92.8496 227.825 92.8634C227.894 92.8772 227.96 92.9061 228.016 92.948C228.079 93.0082 228.126 93.0824 228.155 93.1644C228.183 93.2464 228.192 93.334 228.18 93.42C228.171 93.585 228.108 93.7425 228 93.868C227.91 93.9718 227.785 94.0387 227.648 94.056C227.416 94.08 227.308 93.952 227.324 93.936Z" fill="#EB996E"></path><path d="M228.044 94.2639C228.044 94.2639 228.224 94.3879 228.224 94.7079C228.216 94.8947 228.136 95.071 228 95.1999C227.914 95.2782 227.812 95.3366 227.7 95.3711C227.589 95.4057 227.472 95.4155 227.356 95.3999C227.241 95.378 227.131 95.3308 227.036 95.2617C226.94 95.1925 226.861 95.1032 226.804 94.9999C226.76 94.9167 226.732 94.8253 226.723 94.7312C226.714 94.6371 226.724 94.5421 226.752 94.4519C226.852 94.1439 227.056 94.052 227.064 94.084C227.072 94.116 226.936 94.224 226.888 94.484C226.864 94.6073 226.879 94.735 226.932 94.8493C226.984 94.9636 227.07 95.0589 227.179 95.1218C227.287 95.1847 227.413 95.2122 227.538 95.2004C227.663 95.1886 227.781 95.1381 227.876 95.0559C227.991 94.9619 228.066 94.8273 228.084 94.6799C228.089 94.5401 228.076 94.4003 228.044 94.2639Z" fill="#263238"></path><path d="M226.637 92.6119C226.548 92.6947 226.443 92.7586 226.328 92.7999C226.022 92.9336 225.691 93.0017 225.356 92.9999C224.857 92.9975 224.366 92.874 223.924 92.6399C223.392 92.3502 222.936 91.939 222.592 91.4399C222.002 90.5178 221.638 89.4694 221.528 88.3799C221.472 87.9799 221.444 87.6359 221.428 87.4079C221.408 87.2875 221.408 87.1644 221.428 87.0439C221.531 87.4782 221.611 87.9174 221.668 88.3599C221.816 89.414 222.187 90.4245 222.756 91.3239C223.079 91.798 223.504 92.1932 224 92.4799C224.414 92.7053 224.874 92.8338 225.344 92.8559C225.787 92.8604 226.226 92.7775 226.637 92.6119V92.6119Z" fill="#7E57C2"></path><path d="M229.328 89.172C229.268 89.172 229.088 88.48 228.62 87.728C228.152 86.976 227.6 86.5 227.64 86.452C228.125 86.7277 228.523 87.1337 228.788 87.624C229.111 88.0784 229.298 88.6152 229.328 89.172Z" fill="#263238"></path><path d="M207.556 122.984H206.144C204.86 122.86 204.144 122.84 203.784 122.5C203.304 122.04 203.964 121.592 203.964 121.592C203.964 121.592 203.036 121.272 203.124 120.708C203.18 120.308 203.62 120.28 203.62 120.28C203.62 120.28 202.82 119.96 202.64 119.616C202.42 119.152 202.996 118.904 202.996 118.904C201.88 118.216 201.984 117.532 202.24 117.464C202.496 117.396 203.368 117.8 203.368 117.8C204.104 118.008 206.112 118.62 205.368 117.512C204.624 116.404 204.472 115.276 204.64 114.94C204.677 114.852 204.744 114.779 204.829 114.736C204.914 114.693 205.012 114.682 205.105 114.705C205.198 114.727 205.279 114.782 205.335 114.86C205.391 114.938 205.417 115.033 205.408 115.128C205.523 115.564 205.7 115.982 205.932 116.368C206.109 116.679 206.335 116.96 206.6 117.2C206.916 117.48 207.196 117.704 207.436 117.892L208.692 119.092L207.556 122.984Z" fill="#FFBE9D"></path><path d="M198.768 108.892C198.872 108.588 199.124 108.372 199.396 108.516C199.45 108.58 199.487 108.656 199.502 108.738C199.518 108.82 199.512 108.905 199.484 108.984L198.612 111.82L199.436 109.82C199.54 109.516 199.816 109.332 200.004 109.496C200.051 109.562 200.082 109.638 200.094 109.718C200.105 109.798 200.098 109.879 200.072 109.956L199.32 112.312L199.932 110.84C200.06 110.504 200.208 110.412 200.38 110.488C200.552 110.564 200.556 110.808 200.516 110.944L200 112.68C200.112 113.016 200.496 114.068 200.124 114.66C200.124 114.688 200.164 114.788 200.16 114.82L200.336 115.02L199.2 116.064C199.2 116.064 198.132 113.364 197.928 112.552C197.803 112.085 197.825 111.59 197.992 111.136L198.768 108.892Z" fill="#FFBE9D"></path></svg>